<svg width="145" height="131" viewBox="0 0 145 131" fill="none" xmlns="http://www.w3.org/2000/svg">
<mask id="mask0_3_49" style="mask-type:alpha" maskUnits="userSpaceOnUse" x="0" y="0" width="145" height="131">
<path fill-rule="evenodd" clip-rule="evenodd" d="M36.1609 1.63513C10.5841 7.83198 -5.07418 34.1247 1.50077 59.8328C3.16429 66.3374 5.74617 71.5122 10.3246 77.5208C15.5556 84.3845 59.4311 127.328 62.8776 128.957C64.7389 129.837 68.4076 130.584 71.7884 130.771C81.3922 131.302 82.0914 130.783 111.226 101.488C135.992 76.5866 136.716 75.7687 139.82 69.2151C143.785 60.8422 145.043 55.5574 144.999 47.4621C144.928 34.718 140.158 23.461 130.918 14.2353C116.606 -0.0544849 95.7112 -3.61407 77.0661 5.06183L72.2709 7.29409L67.7851 5.02545C58.9565 0.561722 46.225 -0.803579 36.1609 1.63513ZM60.5931 21.3671C62.9266 22.5086 66.4641 25.2708 68.6323 27.6423L72.5043 31.879L75.7048 28.1636C88.1095 13.7615 112.178 15.6647 122.461 31.8616C128.758 41.7786 128.796 53.9026 122.563 63.678C119.346 68.7239 74.254 113.512 72.392 113.512C70.0284 113.512 23.3946 65.8216 20.9543 60.9094C16.7279 52.3996 16.7485 43.3504 21.0144 34.6167C27.9833 20.3515 46.1127 14.2828 60.5931 21.3671Z" fill="black"/>
</mask>
<g mask="url(#mask0_3_49)">
<path d="M7.10138 69.0068H72.5919V165.27L50.8932 144.755L7.10138 69.0068Z" fill="#E61873"/>
<path d="M17.0715 159.827L-14.9918 102.722L68.9453 55.5931L61.6805 84.5572L17.0715 159.827Z" fill="#F39200"/>
<path d="M-14.9918 117.138L-14.9918 51.6479L81.2714 51.6479L60.7563 73.3465L-14.9918 117.138Z" fill="#D9D9D9"/>
<path d="M-14.9918 117.138L-14.9918 51.6479L81.2714 51.6479L60.7563 73.3465L-14.9918 117.138Z" fill="#F9B233"/>
<path d="M-25.3472 64.8308L8.00051 8.46652L90.8493 57.4837L62.144 65.7123L-25.3472 64.8308Z" fill="#3FB9E5"/>
<path d="M-18.3568 12.9123L38.3844 -19.7899L86.4528 63.6129L57.4089 56.6736L-18.3568 12.9123Z" fill="#68C8ED"/>
<path d="M7.10138 -47.7715H72.5919V48.4917L50.8932 27.9766L7.10138 -47.7715Z" fill="#12A19A"/>
<path d="M7.10138 69.0068H72.5919V165.27L50.8932 144.755L7.10138 69.0068Z" fill="#E61873"/>
<path d="M138.071 68.2178H71.7917V165.27L93.7518 144.587L138.071 68.2178Z" fill="#D60B52"/>
<path d="M17.0715 159.827L-14.9918 102.722L68.9453 55.5931L61.6805 84.5572L17.0715 159.827Z" fill="#F39200"/>
<path d="M127.158 159.615L159.154 102.63L75.3933 55.5997L82.6429 84.5031L127.158 159.615Z" fill="#A2185B"/>
<path d="M-14.9918 117.138L-14.9918 51.6479L81.2714 51.6479L60.7563 73.3465L-14.9918 117.138Z" fill="#D9D9D9"/>
<path d="M158.586 116.349L158.586 52.4369L63.1122 52.4369L83.4591 73.6127L158.586 116.349Z" fill="#D9D9D9"/>
<path d="M-14.9918 117.138L-14.9918 51.6479L81.2714 51.6479L60.7563 73.3465L-14.9918 117.138Z" fill="#F9B233"/>
<path d="M158.586 116.349L158.586 52.4369L63.1122 52.4369L83.4591 73.6127L158.586 116.349Z" fill="#7F1450"/>
<path d="M-25.3472 64.8308L8.00051 8.46652L90.8493 57.4837L62.144 65.7123L-25.3472 64.8308Z" fill="#3FB9E5"/>
<path d="M169.488 64.8181L136.21 8.57206L53.5354 57.4863L82.1804 65.6977L169.488 64.8181Z" fill="#96C11F"/>
<path d="M-18.3568 12.9123L38.3844 -19.7899L86.4528 63.6129L57.4089 56.6736L-18.3568 12.9123Z" fill="#68C8ED"/>
<path d="M162.512 13.0085L105.89 -19.6251L57.9226 63.6026L86.9055 56.6779L162.512 13.0085Z" fill="#3AAA35"/>
<path d="M7.10138 -47.7715H72.5919V48.4917L50.8932 27.9766L7.10138 -47.7715Z" fill="#12A19A"/>
<path d="M138.071 -47.7715H71.7917V49.2807L93.7518 28.5975L138.071 -47.7715Z" fill="#3EB9B1"/>
</g>
</svg>
